# xmcd CD database file
#
# Track frame offsets:
#	150
#	16168
#	32926
#	48376
#	68517
#	85770
#	104112
#	124797
#	142220
#	161936
#	181561
#	199147
#	213570
#	232961
#	255108
#	280935
#
# Disc length: 4034 seconds
#
# Revision: 3
# Processed by: cddbd v1.4PL0 Copyright (c) Steve Scherf et al.
# Submitted via: CDex 1.40Release
#
DISCID=e00fc010
DTITLE=Lenny Kravitz - Greatest hits
DYEAR=2001
DGENRE=Blues
TTITLE0=Are you gonna go my way
TTITLE1=Fly away
TTITLE2=Rock and roll is dead
TTITLE3=Thinking of you
TTITLE4=Again
TTITLE5=It ain't over "til it's over"
TTITLE6=Can't get you off my mind
TTITLE7=Mr. car driver
TTITLE8=American woman
TTITLE9=Stand wy my woman
TTITLE10=Always on the run
TTITLE11=Heaven help 
TTITLE12=I belong to you
TTITLE13=Believe
TTITLE14=Let love rule
TTITLE15=Black velveteen
EXTD=YEAR: 2001 ID3G: 0
EXTT0=
EXTT1=
EXTT2=
EXTT3=
EXTT4=
EXTT5=
EXTT6=
EXTT7=
EXTT8=
EXTT9=
EXTT10=
EXTT11=
EXTT12=
EXTT13=
EXTT14=
EXTT15=
PLAYORDER=
